<?xml version="1.0" standalone="no"?>
<!DOCTYPE svg PUBLIC "-//W3C//DTD SVG 20010904//EN"
 "http://www.w3.org/TR/2001/REC-SVG-20010904/DTD/svg10.dtd">
<svg version="1.0" xmlns="http://www.w3.org/2000/svg"
 width="360.000000pt" height="360.000000pt" viewBox="0 0 360.000000 360.000000"
 preserveAspectRatio="xMidYMid meet">

<g transform="translate(0.000000,360.000000) scale(0.100000,-0.100000)"
fill="#000000" stroke="none">
<path d="M2590 3216 c0 -8 -11 -17 -25 -20 -16 -4 -49 -40 -95 -104 -39 -53
-107 -146 -151 -207 -75 -103 -84 -112 -147 -141 -79 -37 -191 -128 -235 -190
-17 -24 -36 -44 -42 -44 -36 0 -208 103 -568 342 -225 149 -413 266 -417 262
-8 -8 -647 -1598 -657 -1635 -3 -11 50 -42 218 -123 122 -60 337 -165 477
-233 200 -99 256 -122 263 -112 12 19 62 170 58 174 -2 1 -26 14 -54 27 -109
54 -700 399 -698 408 2 6 -16 22 -40 36 -23 15 -44 28 -46 30 -4 4 295 543
310 559 5 5 9 -7 9 -33 0 -41 1 -42 33 -42 66 0 73 6 67 58 l-5 47 -47 -3 -47
-3 181 326 c100 179 185 325 189 325 3 0 151 -111 327 -248 283 -218 332 -251
407 -281 47 -19 85 -39 85 -44 0 -5 -20 -37 -43 -71 -83 -116 -269 -407 -264
-412 3 -3 42 9 88 27 94 35 83 24 261 244 67 83 127 149 133 149 18 -3 630
-255 638 -264 5 -4 1 -16 -10 -27 -17 -17 -18 -40 -18 -366 l0 -347 -42 0 -42
0 -3 51 -3 50 -219 -316 c-121 -174 -222 -318 -226 -320 -3 -2 -176 79 -384
180 -237 116 -379 179 -381 172 -2 -7 -15 -46 -29 -88 -15 -41 -26 -79 -26
-82 0 -16 912 -455 917 -442 2 6 111 186 242 400 l239 390 161 3 161 2 0 261
0 261 61 101 c33 55 57 103 52 107 -4 3 -231 89 -503 190 -272 100 -498 185
-502 189 -4 3 11 30 33 59 22 28 36 52 31 52 -11 0 -33 132 -23 142 3 3 36 9
74 13 77 8 82 2 42 -52 l-26 -33 20 -44 c20 -47 60 -76 104 -76 47 0 129 53
233 152 104 100 243 262 244 285 0 16 -60 57 -69 47 -4 -5 -23 -29 -41 -54
-100 -132 -298 -324 -348 -336 -32 -9 -52 13 -52 54 0 48 28 87 112 152 121
95 168 166 189 288 13 72 -3 112 -50 132 -17 6 -37 23 -46 36 -17 27 -35 32
-35 10z m95 -213 c-16 -89 -107 -198 -224 -267 -7 -5 40 62 105 148 66 86 121
156 123 156 2 0 0 -17 -4 -37z m-612 -472 c-28 -41 -55 -70 -65 -71 -10 0 -18
5 -18 11 0 13 121 141 127 135 3 -2 -17 -36 -44 -75z m57 -58 c0 -10 3 -27 6
-39 5 -18 0 -22 -32 -27 -21 -4 -39 -5 -40 -4 -1 1 -4 19 -8 39 -6 36 -6 37
26 41 18 2 36 5 41 5 4 1 7 -6 7 -15z"/>
<path d="M1550 1731 c0 -5 -27 -46 -59 -92 -33 -45 -58 -87 -55 -91 11 -18 31
-5 68 47 21 29 57 68 79 86 l40 32 -24 13 c-28 16 -49 18 -49 5z"/>
</g>
</svg>
